<svg width="56" height="34" viewBox="0 0 56 34" fill="none" xmlns="http://www.w3.org/2000/svg">
<g clip-path="url(#clip0_0_625)">
<path fill-rule="evenodd" clip-rule="evenodd" d="M20.2195 30.3215H35.2075V3.62946H20.2195V30.3215Z" fill="#FF5F00"/>
<path fill-rule="evenodd" clip-rule="evenodd" d="M21.1713 16.9755C21.1713 11.5603 23.7297 6.73739 27.7136 3.62946C24.7998 1.35615 21.1237 0 17.1278 0C7.66826 0 0.00012207 7.60031 0.00012207 16.9755C0.00012207 26.3507 7.66826 33.951 17.1278 33.951C21.1237 33.951 24.7998 32.5949 27.7136 30.3216C23.7297 27.2132 21.1713 22.3907 21.1713 16.9755Z" fill="#EB001B"/>
<path fill-rule="evenodd" clip-rule="evenodd" d="M54.8923 27.4945V26.8358H54.7187L54.5193 27.2889L54.3195 26.8358H54.1458V27.4945H54.2681V26.9975L54.4555 27.4262H54.5826L54.77 26.9966V27.4945H54.8923ZM53.7927 27.4945V26.948H54.0154V26.8367H53.4492V26.948H53.6714V27.4945H53.7927ZM55.4271 16.9754C55.4271 26.3506 47.7585 33.9509 38.2994 33.9509C34.3036 33.9509 30.627 32.5947 27.7136 30.3214C31.6976 27.2135 34.256 22.3906 34.256 16.9754C34.256 11.5607 31.6976 6.73774 27.7136 3.62934C30.627 1.35603 34.3036 -0.00012207 38.2994 -0.00012207C47.7585 -0.00012207 55.4271 7.60019 55.4271 16.9754Z" fill="#F79E1B"/>
</g>
<defs>
<clipPath id="clip0_0_625">
<rect width="56" height="34" fill="white"/>
</clipPath>
</defs>
</svg>
