<svg width="24" height="24" viewBox="0 0 24 24" fill="none" xmlns="http://www.w3.org/2000/svg">
<g clip-path="url(#clip0_0_428)">
<path d="M24 6.83012C24.0007 6.96172 23.9755 7.09218 23.9257 7.21402C23.876 7.33586 23.8027 7.44668 23.71 7.54012L15.54 15.7101C15.0755 16.1757 14.5238 16.5452 13.9163 16.7972C13.3089 17.0493 12.6577 17.1791 12 17.1791C11.3423 17.1791 10.6911 17.0493 10.0837 16.7972C9.4762 16.5452 8.92445 16.1757 8.45999 15.7101L0.290002 7.54012C0.196763 7.44688 0.122802 7.33619 0.072342 7.21437C0.0218818 7.09254 -0.0040898 6.96198 -0.00408981 6.83012C-0.00408981 6.69826 0.0218817 6.56769 0.072342 6.44587C0.122802 6.32405 0.196763 6.21336 0.290001 6.12012C0.38324 6.02688 0.49393 5.95292 0.615752 5.90246C0.737574 5.852 0.868142 5.82602 1 5.82602C1.13186 5.82602 1.26243 5.852 1.38425 5.90246C1.50607 5.95292 1.61676 6.02688 1.71 6.12012L9.87999 14.2901C10.4425 14.8519 11.205 15.1675 12 15.1675C12.795 15.1675 13.5575 14.8519 14.12 14.2901L22.29 6.12012C22.3829 6.02639 22.4935 5.95199 22.6154 5.90122C22.7373 5.85045 22.868 5.82432 23 5.82432C23.132 5.82432 23.2627 5.85045 23.3845 5.90122C23.5064 5.95199 23.617 6.02639 23.71 6.12012C23.8027 6.21356 23.876 6.32437 23.9257 6.44621C23.9755 6.56805 24.0007 6.69851 24 6.83012Z" fill="#A2A2B5"/>
</g>
<defs>
<clipPath id="clip0_0_428">
<rect width="24" height="24" fill="white" transform="translate(0 24) rotate(-90)"/>
</clipPath>
</defs>
</svg>
