<svg width="16" height="16" viewBox="0 0 16 16" fill="none" xmlns="http://www.w3.org/2000/svg">
<path d="M12.4715 8.4502C12.4639 7.15473 13.0508 6.17838 14.2361 5.45847C13.5732 4.50871 12.5702 3.98635 11.2482 3.88568C9.9964 3.7869 8.62685 4.61509 8.12538 4.61509C7.59542 4.61509 6.38353 3.91987 5.42998 3.91987C3.46209 3.95026 1.37073 5.48886 1.37073 8.61925C1.37073 9.54431 1.53978 10.4998 1.8779 11.4837C2.32998 12.7792 3.95976 15.9533 5.65982 15.902C6.54879 15.8811 7.17753 15.2713 8.33433 15.2713C9.45694 15.2713 10.0382 15.902 11.0297 15.902C12.745 15.8773 14.219 12.9919 14.6483 11.6927C12.348 10.608 12.4715 8.51668 12.4715 8.4502ZM10.4751 2.65669C11.4381 1.51319 11.3508 0.472256 11.3223 0.098053C10.4713 0.14744 9.48733 0.677404 8.92698 1.32894C8.30964 2.02795 7.94683 2.89223 8.02471 3.86668C8.94407 3.93696 9.78366 3.46398 10.4751 2.65669Z" fill="white"/>
</svg>
