<svg width="40" height="40" viewBox="0 0 40 40" fill="none" xmlns="http://www.w3.org/2000/svg">
<rect width="40" height="40" rx="12" fill="#ACDCF5"/>
<g clip-path="url(#clip0_0_593)">
<path d="M22.8953 23.1225L27.6428 18.5009C26.6566 14.5866 22.74 12.2272 18.8947 13.2311C17.1631 13.6831 15.6591 14.7759 14.6763 16.2959C14.7498 16.294 22.8953 23.1225 22.8953 23.1225Z" fill="#0364B8"/>
<path d="M17.7704 17.166L17.7702 17.1668C16.863 16.5949 15.8168 16.2926 14.7498 16.294C14.7251 16.294 14.7009 16.2956 14.6763 16.2959C11.5023 16.336 8.96115 18.9876 9.00045 22.2185C9.0147 23.3905 9.37444 24.5311 10.033 25.4925L17.1455 24.5858L22.5985 20.1099L17.7704 17.166Z" fill="#0078D4"/>
<path d="M27.6427 18.5009C27.5384 18.4938 27.4335 18.4889 27.3274 18.4889C26.6905 18.4883 26.0602 18.6207 25.4756 18.878L25.4755 18.8775L22.5985 20.1099L25.7702 24.098L31.4403 25.5011C32.6639 23.1887 31.8144 20.3045 29.5428 19.0589C28.9558 18.737 28.308 18.5468 27.6428 18.5009V18.5009H27.6427Z" fill="#1490DF"/>
<path d="M10.0331 25.4925C11.107 27.0643 12.869 28.001 14.7498 28H27.3275C29.0456 28.0005 30.6253 27.0407 31.4404 25.5011L22.5986 20.1099L10.0331 25.4925Z" fill="#28A8EA"/>
</g>
<defs>
<clipPath id="clip0_0_593">
<rect width="23" height="15" fill="white" transform="translate(9 13)"/>
</clipPath>
</defs>
</svg>
