<svg width="17" height="16" viewBox="0 0 17 16" fill="none" xmlns="http://www.w3.org/2000/svg">
<path d="M14.8041 6.76935C14.8861 7.20868 14.9307 7.66801 14.9307 8.14735C14.9307 11.8967 12.4214 14.5627 8.63139 14.5627C7.7695 14.5629 6.916 14.3934 6.11966 14.0637C5.32332 13.734 4.59975 13.2506 3.9903 12.6411C3.38085 12.0317 2.89746 11.3081 2.56774 10.5117C2.23803 9.71541 2.06846 8.86191 2.06873 8.00001C2.06846 7.13812 2.23803 6.28462 2.56774 5.48828C2.89746 4.69194 3.38085 3.96837 3.9903 3.35892C4.59975 2.74947 5.32332 2.26608 6.11966 1.93637C6.916 1.60665 7.7695 1.43708 8.63139 1.43735C10.4034 1.43735 11.8841 2.08935 13.0201 3.14801L11.1701 4.99801V4.99335C10.4814 4.33735 9.60739 4.00068 8.63139 4.00068C6.46606 4.00068 4.70606 5.83002 4.70606 7.99602C4.70606 10.1613 6.46606 11.9947 8.63139 11.9947C10.5961 11.9947 11.9334 10.8713 12.2081 9.32868H8.63139V6.76935H14.8047H14.8041Z" fill="#0E0E12"/>
</svg>
