<svg width="20" height="20" viewBox="0 0 20 20" fill="none" xmlns="http://www.w3.org/2000/svg">
<path d="M15.0926 0.833344H17.1297C17.6699 0.833344 18.188 1.04796 18.5701 1.42998C18.9521 1.812 19.1667 2.33012 19.1667 2.87038V4.90742" stroke="#C1C1CD" stroke-width="2" stroke-linecap="round" stroke-linejoin="round"/>
<path d="M4.90741 0.833344H2.87037C2.33012 0.833344 1.81199 1.04796 1.42997 1.42998C1.04795 1.812 0.833336 2.33012 0.833336 2.87038V4.90742" stroke="#C1C1CD" stroke-width="2" stroke-linecap="round" stroke-linejoin="round"/>
<path d="M5.92596 5.92593V7.96297" stroke="#C1C1CD" stroke-width="2" stroke-linecap="round" stroke-linejoin="round"/>
<path d="M14.0741 5.92593V7.96297" stroke="#C1C1CD" stroke-width="2" stroke-linecap="round" stroke-linejoin="round"/>
<path d="M13.0556 14.0741C13.0556 14.0741 12.0371 15.0926 10 15.0926C7.96301 15.0926 6.94449 14.0741 6.94449 14.0741" stroke="#C1C1CD" stroke-width="2" stroke-linecap="round" stroke-linejoin="round"/>
<path d="M10 5.92593V11.0185H11.0186" stroke="#C1C1CD" stroke-width="2" stroke-linecap="round" stroke-linejoin="round"/>
<path d="M15.0926 19.1667H17.1297C17.6699 19.1667 18.188 18.952 18.5701 18.57C18.9521 18.188 19.1667 17.6699 19.1667 17.1296V15.0926" stroke="#C1C1CD" stroke-width="2" stroke-linecap="round" stroke-linejoin="round"/>
<path d="M4.90741 19.1667H2.87037C2.33012 19.1667 1.81199 18.952 1.42997 18.57C1.04795 18.188 0.833336 17.6699 0.833336 17.1296V15.0926" stroke="#C1C1CD" stroke-width="2" stroke-linecap="round" stroke-linejoin="round"/>
</svg>
