<svg width="40" height="40" viewBox="0 0 40 40" fill="none" xmlns="http://www.w3.org/2000/svg">
<rect width="40" height="40" rx="12" fill="#1ED760"/>
<g clip-path="url(#clip0_0_582)">
<path d="M19.9994 9.03629C13.943 9.03629 9.03308 13.9461 9.03308 20.0025C9.03308 26.0592 13.943 30.9686 19.9994 30.9686C26.0565 30.9686 30.9659 26.0592 30.9659 20.0025C30.9659 13.9465 26.0565 9.03681 19.9993 9.03681L19.9994 9.03629ZM25.0285 24.8527C24.8321 25.1749 24.4104 25.277 24.0883 25.0793C21.5135 23.5065 18.2722 23.1503 14.4549 24.0225C14.0871 24.1063 13.7204 23.8758 13.6366 23.5078C13.5524 23.1399 13.7819 22.7732 14.1507 22.6894C18.3281 21.7346 21.9113 22.1459 24.802 23.9125C25.1241 24.1102 25.2263 24.5306 25.0285 24.8527ZM26.3708 21.8663C26.1233 22.269 25.5969 22.396 25.1948 22.1485C22.2471 20.3363 17.7537 19.8116 14.2671 20.8699C13.8149 21.0065 13.3374 20.7517 13.2001 20.3003C13.0639 19.8481 13.3189 19.3714 13.7703 19.2339C17.7529 18.0255 22.7041 18.6109 26.0892 20.691C26.4913 20.9385 26.6183 21.465 26.3708 21.8665V21.8663ZM26.486 18.757C22.9516 16.6577 17.1203 16.4647 13.7458 17.4889C13.2039 17.6532 12.6309 17.3473 12.4667 16.8054C12.3024 16.2633 12.6081 15.6906 13.1504 15.5259C17.0241 14.3499 23.4636 14.5771 27.5329 16.9928C28.0213 17.2821 28.1811 17.9116 27.8917 18.3983C27.6036 18.8857 26.9724 19.0464 26.4866 18.757H26.486Z" fill="white"/>
</g>
<defs>
<clipPath id="clip0_0_582">
<rect width="22" height="22" fill="white" transform="translate(9 9)"/>
</clipPath>
</defs>
</svg>
