<svg width="40" height="40" viewBox="0 0 40 40" fill="none" xmlns="http://www.w3.org/2000/svg">
<rect width="40" height="40" rx="12" fill="#FF0000"/>
<g clip-path="url(#clip0_0_586)">
<path d="M31.5057 14.5035C31.2289 13.5247 30.4184 12.7529 29.3904 12.4894C27.5123 12 19.9999 12 19.9999 12C19.9999 12 12.4876 12 10.6095 12.4706C9.60131 12.7341 8.771 13.5247 8.49423 14.5035C8 16.2918 8 20 8 20C8 20 8 23.7271 8.49423 25.4965C8.771 26.4753 9.58154 27.2471 10.6095 27.5106C12.5074 28 19.9999 28 19.9999 28C19.9999 28 27.5123 28 29.3904 27.5294C30.4184 27.2659 31.2289 26.4941 31.5057 25.5153C31.9999 23.7271 31.9999 20.0188 31.9999 20.0188C31.9999 20.0188 32.0197 16.2918 31.5057 14.5035Z" fill="white"/>
<path d="M23.855 20L17.6079 16.5741V23.4259L23.855 20Z" fill="#FF0000"/>
</g>
<defs>
<clipPath id="clip0_0_586">
<rect width="24" height="16" fill="white" transform="translate(8 12)"/>
</clipPath>
</defs>
</svg>
